<?xml version="1.0" encoding="UTF-8" standalone="no"?>
<svg
   xmlns:dc="http://purl.org/dc/elements/1.1/"
   xmlns:cc="http://creativecommons.org/ns#"
   xmlns:rdf="http://www.w3.org/1999/02/22-rdf-syntax-ns#"
   xmlns:svg="http://www.w3.org/2000/svg"
   xmlns="http://www.w3.org/2000/svg"
   xmlns:sodipodi="http://sodipodi.sourceforge.net/DTD/sodipodi-0.dtd"
   xmlns:inkscape="http://www.inkscape.org/namespaces/inkscape"
   width="123mm"
   height="175mm"
   viewBox="0 0 123 175"
   version="1.1"
   id="svg8"
   inkscape:version="1.0.1 (3bc2e813f5, 2020-09-07)"
   sodipodi:docname="drawing.svg">
  <defs
     id="defs2" />
  <sodipodi:namedview
     id="base"
     pagecolor="#ffffff"
     bordercolor="#666666"
     borderopacity="1.0"
     inkscape:pageopacity="0.0"
     inkscape:pageshadow="2"
     inkscape:zoom="1"
     inkscape:cx="304.3393"
     inkscape:cy="274.57329"
     inkscape:document-units="mm"
     inkscape:current-layer="layer1"
     inkscape:document-rotation="0"
     showgrid="false"
     inkscape:window-width="1920"
     inkscape:window-height="1001"
     inkscape:window-x="-9"
     inkscape:window-y="-9"
     inkscape:window-maximized="1" />
  <metadata
     id="metadata5">
    <rdf:RDF>
      <cc:Work
         rdf:about="">
        <dc:format>image/svg+xml</dc:format>
        <dc:type
           rdf:resource="http://purl.org/dc/dcmitype/StillImage" />
        <dc:title></dc:title>
      </cc:Work>
    </rdf:RDF>
  </metadata>
  <g
     inkscape:label="Layer 1"
     inkscape:groupmode="layer"
     id="layer1">
    <path
       style="fill:#000000;fill-opacity:1;fill-rule:nonzero;stroke:none;stroke-width:0.264583"
       id="path10"
       d="m 0.60158293,32.830917 c 9.24706037,-2.37197 18.62262607,-4.10896 28.06163907,-5.4995 5.061146,-0.62461 10.134253,-1.24453 15.236198,-1.41157 2.447591,-0.0801 4.734263,-0.14005 7.135209,0.40095 0.94375,0.21266 1.832036,0.62225 2.748052,0.93337 0.812017,0.52996 1.705735,0.95201 2.436046,1.58988 4.257801,3.71885 5.792427,9.60425 6.91389,14.88093 1.330722,6.54537 0.782413,13.08626 -0.541848,19.56468 -0.848937,3.27065 -1.859275,6.55096 -4.264374,9.04555 -1.338313,1.38811 -2.433251,2.00643 -4.021254,3.08238 2.372606,-1.41142 4.836641,-2.6794 7.117815,-4.23427 0.748141,-0.50994 -1.642194,0.76812 -2.491771,1.08112 -0.908347,0.33465 -1.833661,0.62973 -2.774162,0.85896 -4.003498,0.97575 -8.027979,1.07557 -12.122973,1.17404 -8.040489,0.0522 -15.986045,-1.26253 -23.574665,-3.88039 -2.428645,-0.87674 -4.397397,-2.26803 -5.303819,-4.76612 -0.182425,-0.50276 -0.376198,-1.02372 -0.38131,-1.55852 -0.0047,-0.4932 0.235117,-0.95801 0.352676,-1.43702 -1.117626,-0.19772 4.016452,-3.11368 2.970388,-2.39149 -2.176913,1.50294 -4.994847,2.28725 -6.623008,4.37216 -0.816144,1.0451 2.574494,-0.64996 3.883176,-0.8637 4.036525,-0.65927 7.541151,-0.78233 11.651503,-1.0577 13.495838,-0.41127 27.04283,-1.01665 40.537724,-0.20549 2.28639,0.13743 4.56447,0.38914 6.8467,0.58372 5.34338,0.79225 11.89719,1.53379 14.92713,6.74046 1.56527,2.68979 1.39666,4.11262 1.76509,7.17739 -0.11947,1.47622 -0.12015,2.9669 -0.3584,4.42865 -1.23383,7.56974 -4.97886,14.62 -9.56727,20.667913 -1.23992,1.63432 -2.61876,3.15843 -3.92814,4.73765 -7.07204,7.97203 -15.881349,13.99504 -24.690979,19.85396 -3.988842,2.97331 -8.68163,5.07786 -12.378811,8.45463 -1.695712,1.54876 -2.154068,2.38669 -3.451881,4.20901 -1.984862,3.66288 -3.001185,7.99854 -2.412728,12.17263 0.125487,0.89012 0.393319,1.75428 0.589979,2.63142 2.187231,5.79221 6.742019,9.78713 12.140697,12.60746 1.440352,0.75246 2.960875,1.34032 4.441311,2.01048 1.627402,0.54927 3.231637,1.17267 4.882203,1.64781 6.119749,1.76168 14.003019,3.32691 20.375559,2.75371 1.85098,-0.16649 3.66374,-0.62637 5.49561,-0.93956 1.69673,-0.54616 3.42964,-0.99061 5.09019,-1.63849 1.4991,-0.58489 2.9799,-1.24089 4.36951,-2.0523 6.40864,-3.7421 11.301585,-5.60216 15.481665,-10.85852 1.92093,-2.41551 2.16878,-3.42568 3.38903,-6.17112 0.20541,-1.08998 0.56337,-2.16203 0.61621,-3.26994 0.17001,-3.56436 -1.33732,-6.70937 -3.97154,-9.06582 -2.9316,-2.62246 -4.70375,-2.99397 -8.410985,-4.61183 -12.40199,-3.46138 -25.31944,-4.84242 -38.178722,-4.39258 -2.373508,0.083 -4.739976,0.30717 -7.109963,0.46075 -10.517137,1.02722 -20.75204,3.73317 -30.636347,7.38999 -1.697323,0.36304 -6.249604,3.27275 -7.929872,2.96525 -0.848847,-0.15535 -0.898819,-1.33233 -1.067604,-1.8732 -1.185069,-7.07633 -0.377693,-14.21664 0.655219,-21.24991 0.603541,-3.67439 1.315929,-7.3389 2.311048,-10.92984 0.522589,-1.8858 0.914382,-3.33738 1.956266,-4.99789 0.399465,-0.63665 0.939408,-1.17349 1.409112,-1.76024 0.613003,-0.416723 2.474302,-1.632033 1.839008,-1.250153 -2.420951,1.455223 -5.033595,2.656763 -7.198161,4.471513 -0.739492,0.61998 1.839796,-0.60286 2.789285,-0.77516 1.118952,-0.20306 2.257446,-0.30769 3.393995,-0.34693 3.493029,-0.12057 4.67129,0.19315 8.186627,0.66195 9.436737,1.50503 18.059947,5.71473 26.695481,9.58605 6.197944,2.51375 12.499048,5.17584 19.200828,5.99378 4.22056,0.5151 4.81666,0.22448 9.00849,-0.18966 4.08945,-0.80433 8.26384,-1.84843 11.95369,-3.86918 5.279125,-2.89113 11.005055,-5.25556 15.173645,-9.69419 0.87837,-0.93527 1.6078,-2.00001 2.4117,-3.00002 3.06938,-4.935053 5.23334,-10.380163 6.52565,-16.042223 0.72751,-3.18746 0.90015,-5.02309 1.33107,-8.24113 0.59789,-6.19198 0.94556,-12.47872 0.1132,-18.66973 -0.14511,-1.07934 -0.37267,-2.14599 -0.55901,-3.21898 -1.37891,-5.2359 -3.83774,-10.08051 -6.37289,-14.8329 0,0 -9.50153,5.45426 -9.50153,5.45426 v 0 c 2.56144,4.6056 4.98266,9.34032 6.25299,14.48911 1.21324,7.13545 1.31417,14.35136 0.39843,21.54122 -1.20412,8.71596 -3.04666,16.37107 -8.14144,23.745453 -0.83156,0.94925 -1.59024,1.96766 -2.49468,2.84774 -0.75297,0.7327 -11.316255,8.82552 3.30846,-1.0858 1.10992,-0.7522 -2.39669,1.20844 -3.6358,1.72062 -3.567285,1.47449 -4.397915,1.52668 -8.160515,2.45291 -4.06377,0.53864 -4.72993,0.86209 -8.85513,0.4607 -6.66982,-0.649 -12.96768,-3.24922 -19.115656,-5.732 -8.675354,-3.90557 -17.276574,-8.306223 -26.753193,-9.903753 -3.892989,-0.62653 -7.711948,-1.22789 -11.668191,-0.7629 -6.163058,0.72436 -11.758747,4.392713 -16.243358,8.567013 -0.4283997,0.6485 -0.9213291,1.25872 -1.2852031,1.94551 -0.925425,1.74669 -1.289674,3.22753 -1.770171,5.14269 -0.907624,3.61758 -1.573257,7.29131 -2.167889,10.97133 -1.045382,7.23473 -1.802863,14.55957 -0.71138,21.84508 0.385162,1.14863 0.50751,2.46336 1.750232,3.08839 1.857062,0.934 6.6616181,-2.34348 8.4526751,-2.85361 9.917356,-3.85915 20.212396,-6.73298 30.816764,-7.91522 2.377085,-0.1838 4.749625,-0.44115 7.131256,-0.55138 12.675063,-0.58667 25.457484,0.66731 37.656394,4.21448 3.43589,1.51456 5.20585,1.93021 7.94472,4.34194 2.417755,2.12899 3.750995,4.95434 3.465285,8.20295 -0.0911,1.03591 -0.47144,2.02568 -0.70717,3.03852 -1.269415,2.61526 -1.514805,3.53101 -3.457625,5.80266 -0.84179,0.98427 -4.05287,2.71125 -2.75798,2.73681 2.06406,0.0407 3.65636,-1.93941 5.583005,-2.68105 3.16228,-1.21728 -12.746015,6.28052 -9.355555,3.97615 -1.78596,0.35333 -3.54843,0.85901 -5.35788,1.06001 -6.22496,0.69151 -14.15535,-0.7905 -20.15473,-2.47291 -1.618265,-0.45381 -3.191997,-1.0536 -4.787995,-1.5804 -1.437682,-0.64694 -2.914615,-1.2129 -4.313047,-1.9408 -5.114158,-2.66198 -9.510633,-6.42551 -11.489155,-11.96168 -0.165619,-0.82445 -0.401251,-1.63787 -0.496851,-2.47333 -0.458687,-4.0085 0.644673,-8.09418 2.732159,-11.4943 1.449075,-1.86261 1.661292,-2.31876 3.513217,-3.90738 3.723513,-3.19411 8.208589,-5.38632 12.143626,-8.28442 8.774876,-5.88726 17.502316,-11.99351 24.426176,-20.08466 1.29142,-1.60418 2.65418,-3.153473 3.87428,-4.812563 4.59596,-6.24962 8.36885,-13.52376 9.551305,-21.27396 0.23424,-1.53526 0.21117,-3.09887 0.31676,-4.6483 -0.4375,-3.32781 -0.27571,-4.81705 -1.987655,-7.7429 -3.25775,-5.56771 -10.00291,-6.45624 -15.79453,-7.19779 -2.32997,-0.17888 -4.65658,-0.40902 -6.98992,-0.53664 -13.456124,-0.73592 -26.951774,-0.228 -40.413594,-0.005 -3.840998,0.18217 -7.65216,0.28185 -11.472233,0.74443 -1.301736,0.15763 -2.678136,0.12531 -3.879561,0.65062 -4.221959,1.846 -8.236305,4.14197 -12.2515951,6.40252 -1.791388,1.00853 -1.812028,1.58193 -2.682044,3.23825 -0.04584,0.61272 -0.199514,1.22686 -0.13753,1.83816 0.06085,0.60015 0.280114,1.17754 0.500258,1.73916 1.075357,2.74341 3.113725,4.4893 5.8811401,5.42867 7.72846,2.58894 15.808846,3.97133 23.969339,4.05719 4.064879,-0.0268 8.118544,-0.0135 12.125283,-0.81777 6.319027,-1.26844 11.576327,-5.1556 17.025567,-8.41533 1.686528,-1.27564 2.54976,-1.77728 3.91738,-3.40899 2.26025,-2.69672 3.18612,-6.11664 3.99356,-9.46121 1.20785,-6.60632 1.6479,-13.28842 0.27529,-19.9232 -1.2225,-5.55623 -2.94335,-11.60179 -7.282242,-15.62507 -0.773353,-0.717104 -1.723485,-1.216079 -2.585228,-1.824116 -0.972203,-0.362963 -1.910193,-0.835816 -2.91661,-1.088895 -2.558132,-0.643279 -4.756616,-0.571648 -7.385894,-0.480727 -5.173715,0.178911 -10.310461,0.858909 -15.447148,1.452584 -9.260464,1.349108 -18.459769,2.998664 -27.5994937,5.014284 0,0 -8.88517637,6.79412 -8.88517637,6.79412 z" />
    <path
       sodipodi:type="star"
       style="fill:#ffff00;fill-rule:evenodd;stroke-width:0.162609"
       id="path12"
       sodipodi:sides="5"
       sodipodi:cx="92.326874"
       sodipodi:cy="23.147657"
       sodipodi:r1="21.557566"
       sodipodi:r2="10.950196"
       sodipodi:arg1="0.64781143"
       sodipodi:arg2="1.2107463"
       inkscape:flatsided="false"
       inkscape:rounded="0"
       inkscape:randomized="0"
       d="M 109.51701,36.156412 96.184858,33.395718 85.266858,43.516379 83.772571,29.983644 70.773404,22.727465 83.18204,17.124468 86.066112,2.5192424 95.229358,12.589135 110.01098,10.818789 103.26554,22.645321 Z"
       inkscape:transform-center-x="1.9346839"
       inkscape:transform-center-y="-0.12984744" />
    <path
       style="opacity:1;fill:none;fill-opacity:1;stroke:#ed8d86;stroke-width:1;stroke-linecap:butt;stroke-linejoin:miter;stroke-miterlimit:4;stroke-dasharray:none;stroke-opacity:0.995918"
       d="m 85.266855,43.516377 10.91801,-10.12066 13.332145,2.76069 -6.25147,-13.511092 6.74544,-11.82653 -14.781615,1.770345 -9.16325,-10.0698933 -2.88407,14.6052273 -12.40864,5.602997 12.99917,7.256176 z"
       id="path24" />
  </g>
</svg>
